<svg width="191" height="50" viewBox="0 0 191 50" fill="none" xmlns="http://www.w3.org/2000/svg">
<path d="M9.2983 6.429C14.4056 6.429 18.4946 7.58833 21.5653 9.907C24.6673 12.1943 26.2183 16.4087 26.2183 22.55C26.2183 28.5973 24.7143 32.8587 21.7063 35.334C18.6983 37.778 14.7973 39 10.0033 39H0.227295V6.429H9.2983ZM7.9353 12.022V33.407H10.4733C13.0113 33.407 14.9383 32.6237 16.2543 31.057C17.5703 29.459 18.2283 26.6233 18.2283 22.55C18.2283 19.7613 17.8993 17.5993 17.2413 16.064C16.5833 14.5287 15.6903 13.479 14.5623 12.915C13.4343 12.3197 12.04 12.022 10.3793 12.022H7.9353Z" fill="#141414"/>
<path d="M51.7566 39H45.3176L44.9886 35.851C43.1712 38.483 40.6489 39.799 37.4216 39.799C35.1342 39.799 33.3952 39.1097 32.2046 37.731C31.0452 36.3523 30.4656 34.4253 30.4656 31.95V14.043H37.8916V31.01C37.8916 32.232 38.0796 33.0937 38.4556 33.595C38.8629 34.065 39.4739 34.3 40.2886 34.3C41.8552 34.3 43.2026 33.3287 44.3306 31.386V14.043H51.7566V39Z" fill="#141414"/>
<path d="M75.175 14.043V19.26L63.895 33.36H75.41L74.752 39H55.294V33.736L66.621 19.636H56.281V14.043H75.175Z" fill="#141414"/>
<path d="M98.3148 31.762C98.3148 32.702 98.4402 33.3913 98.6908 33.83C98.9728 34.2687 99.4115 34.5977 100.007 34.817L98.4558 39.658C96.9205 39.5327 95.6672 39.2037 94.6958 38.671C93.7245 38.107 92.9725 37.2297 92.4398 36.039C90.8105 38.5457 88.3038 39.799 84.9198 39.799C82.4445 39.799 80.4705 39.0783 78.9978 37.637C77.5252 36.1957 76.7888 34.3157 76.7888 31.997C76.7888 29.271 77.7915 27.1873 79.7968 25.746C81.8022 24.3047 84.7005 23.584 88.4918 23.584H91.0298V22.503C91.0298 21.0303 90.7165 20.0277 90.0898 19.495C89.4632 18.931 88.3665 18.649 86.7998 18.649C85.9852 18.649 84.9982 18.7743 83.8388 19.025C82.6795 19.2443 81.4888 19.5577 80.2668 19.965L78.5748 15.077C80.1415 14.4817 81.7395 14.0273 83.3688 13.714C85.0295 13.4007 86.5648 13.244 87.9748 13.244C91.5468 13.244 94.1632 13.9803 95.8238 15.453C97.4845 16.9257 98.3148 19.1347 98.3148 22.08V31.762ZM87.0818 34.488C88.7738 34.488 90.0898 33.689 91.0298 32.091V27.673H89.1968C87.5048 27.673 86.2358 27.9707 85.3898 28.566C84.5752 29.1613 84.1678 30.0857 84.1678 31.339C84.1678 32.3417 84.4185 33.125 84.9198 33.689C85.4525 34.2217 86.1732 34.488 87.0818 34.488Z" fill="#141414"/>
<path d="M118.847 13.244C121.009 13.244 122.701 13.902 123.923 15.218C125.145 16.534 125.756 18.3827 125.756 20.764V39H118.33V22.033C118.33 20.7797 118.126 19.918 117.719 19.448C117.343 18.9467 116.763 18.696 115.98 18.696C114.476 18.696 113.035 19.777 111.656 21.939V39H104.23V14.043H110.716L111.233 17.004C112.298 15.7507 113.442 14.8107 114.664 14.184C115.917 13.5573 117.312 13.244 118.847 13.244Z" fill="#141414"/>
<path d="M138.735 36.18C138.735 38.7807 138.312 40.927 137.466 42.619C136.651 44.311 135.523 45.6583 134.082 46.661C132.672 47.695 130.886 48.6037 128.724 49.387L126.233 43.982C127.455 43.418 128.41 42.8697 129.1 42.337C129.789 41.8043 130.322 41.0837 130.698 40.175C131.105 39.2977 131.309 38.1227 131.309 36.65V14.043H138.735V36.18ZM135.022 0.882996C136.306 0.882996 137.356 1.29033 138.171 2.105C139.017 2.88833 139.44 3.891 139.44 5.113C139.44 6.335 139.017 7.35333 138.171 8.168C137.356 8.95133 136.306 9.343 135.022 9.343C133.737 9.343 132.687 8.95133 131.873 8.168C131.058 7.35333 130.651 6.335 130.651 5.113C130.651 3.891 131.058 2.88833 131.873 2.105C132.687 1.29033 133.737 0.882996 135.022 0.882996Z" fill="#141414"/>
<path d="M155.385 13.244C159.207 13.244 162.2 14.419 164.362 16.769C166.524 19.0877 167.605 22.3463 167.605 26.545C167.605 29.2083 167.103 31.5427 166.101 33.548C165.129 35.522 163.719 37.0573 161.871 38.154C160.053 39.2507 157.891 39.799 155.385 39.799C151.593 39.799 148.601 38.6397 146.408 36.321C144.246 33.971 143.165 30.6967 143.165 26.498C143.165 23.8347 143.65 21.516 144.622 19.542C145.624 17.5367 147.034 15.9857 148.852 14.889C150.7 13.7923 152.878 13.244 155.385 13.244ZM155.385 18.696C153.881 18.696 152.753 19.3383 152.001 20.623C151.249 21.8763 150.873 23.8347 150.873 26.498C150.873 29.224 151.233 31.2137 151.954 32.467C152.706 33.7203 153.849 34.347 155.385 34.347C156.889 34.347 158.017 33.7203 158.769 32.467C159.521 31.1823 159.897 29.2083 159.897 26.545C159.897 23.819 159.521 21.8293 158.769 20.576C158.048 19.3227 156.92 18.696 155.385 18.696Z" fill="#141414"/>
<path d="M180.811 13.244C182.597 13.244 184.273 13.5103 185.84 14.043C187.407 14.5757 188.785 15.3277 189.976 16.299L187.25 20.482C185.213 19.1973 183.161 18.555 181.093 18.555C180.122 18.555 179.37 18.7273 178.837 19.072C178.336 19.3853 178.085 19.8397 178.085 20.435C178.085 20.905 178.195 21.2967 178.414 21.61C178.665 21.892 179.15 22.1897 179.871 22.503C180.592 22.8163 181.704 23.1923 183.208 23.631C185.809 24.383 187.736 25.37 188.989 26.592C190.274 27.7827 190.916 29.4433 190.916 31.574C190.916 33.266 190.43 34.7387 189.459 35.992C188.488 37.214 187.156 38.154 185.464 38.812C183.772 39.47 181.892 39.799 179.824 39.799C177.725 39.799 175.766 39.47 173.949 38.812C172.163 38.154 170.643 37.2453 169.39 36.086L173.009 32.044C175.108 33.6733 177.317 34.488 179.636 34.488C180.764 34.488 181.641 34.2843 182.268 33.877C182.926 33.4697 183.255 32.89 183.255 32.138C183.255 31.5427 183.13 31.0727 182.879 30.728C182.628 30.3833 182.143 30.07 181.422 29.788C180.701 29.4747 179.558 29.0987 177.991 28.66C175.516 27.9393 173.667 26.9367 172.445 25.652C171.223 24.3673 170.612 22.7693 170.612 20.858C170.612 19.4167 171.019 18.132 171.834 17.004C172.68 15.8447 173.871 14.936 175.406 14.278C176.973 13.5887 178.774 13.244 180.811 13.244Z" fill="#141414"/>
</svg>
